<?xml version="1.0" encoding="utf-8"?>
<!-- Generator: Adobe Illustrator 16.0.0, SVG Export Plug-In . SVG Version: 6.00 Build 0)  -->
<!DOCTYPE svg PUBLIC "-//W3C//DTD SVG 1.1//EN" "http://www.w3.org/Graphics/SVG/1.1/DTD/svg11.dtd">
<svg version="1.1" id="Layer_1" xmlns="http://www.w3.org/2000/svg" xmlns:xlink="http://www.w3.org/1999/xlink" x="0px" y="0px"
	 width="960px" height="560px" viewBox="0 0 960 560" enable-background="new 0 0 960 560" xml:space="preserve">
<g>
	<path fill="#BFBFBF" d="M946.11,287.96c0,21.7-17.23,39.3-38.49,39.3c-16.34,0-30.311-10.41-35.88-25.09H729.7
		c-5.57,14.68-19.54,25.09-35.891,25.09c-16.34,0-30.31-10.41-35.88-25.09H515.95c-5.57,14.68-19.54,25.09-35.89,25.09
		c-16.34,0-30.31-10.41-35.88-25.09H302.14c-5.57,14.68-19.54,25.09-35.89,25.09c-16.34,0-30.31-10.41-35.89-25.09H88.39
		c-5.57,14.68-19.54,25.09-35.89,25.09c-21.25,0-38.49-17.6-38.49-39.3s17.24-39.3,38.49-39.3c16.35,0,30.32,10.41,35.89,25.09
		h141.97c5.58-14.68,19.55-25.09,35.89-25.09c16.35,0,30.32,10.41,35.89,25.09h142.04c5.57-14.68,19.54-25.09,35.88-25.09
		c16.35,0,30.32,10.41,35.89,25.09H657.93c5.57-14.68,19.54-25.09,35.88-25.09c16.351,0,30.32,10.41,35.891,25.09h142.04
		c5.569-14.68,19.54-25.09,35.88-25.09C928.88,248.66,946.11,266.26,946.11,287.96z"/>
	<g>
		<path fill="#FF9A00" d="M234,273.751v28.42H88.39c-5.57,14.68-19.54,25.09-35.89,25.09c-21.25,0-38.49-17.6-38.49-39.3
			s17.24-39.3,38.49-39.3c16.35,0,30.32,10.41,35.89,25.09H234z"/>
		<linearGradient id="SVGID_1_" gradientUnits="userSpaceOnUse" x1="266.0327" y1="261.1636" x2="266.0327" y2="339.7656">
			<stop  offset="0" style="stop-color:#FFFFFF"/>
			<stop  offset="1" style="stop-color:#808080"/>
		</linearGradient>
		<path fill="url(#SVGID_1_)" d="M304.519,287.956c0,21.709-17.228,39.305-38.488,39.305c-21.252,0-38.483-17.596-38.483-39.305
			c0-21.698,17.231-39.297,38.483-39.297C287.291,248.659,304.519,266.258,304.519,287.956z"/>
		<path fill="#FF9A00" d="M279.152,287.96c0,7.4-5.873,13.398-13.117,13.398c-7.247,0-13.125-5.998-13.125-13.398
			c0-7.398,5.877-13.396,13.125-13.396C273.28,274.563,279.152,280.562,279.152,287.96z"/>
	</g>
</g>
</svg>
